<?xml version="1.0" standalone="no"?>
<!DOCTYPE svg PUBLIC "-//W3C//DTD SVG 20010904//EN"
 "http://www.w3.org/TR/2001/REC-SVG-20010904/DTD/svg10.dtd">
<svg version="1.0" xmlns="http://www.w3.org/2000/svg"
 width="459.000000pt" height="381.000000pt" viewBox="0 0 459.000000 381.000000"
 preserveAspectRatio="xMidYMid meet">
<metadata>
Created by potrace 1.16, written by Peter Selinger 2001-2019
</metadata>
<g transform="translate(0.000000,381.000000) scale(0.100000,-0.100000)"
fill="#4b5d35" stroke="none">
<path d="M1513 3383 c-139 -142 -242 -256 -243 -267 0 -11 142 -161 373 -392
l372 -374 285 0 285 0 235 238 c415 419 500 508 500 527 0 21 -486 515 -507
515 -14 0 -353 -340 -353 -354 0 -5 65 -75 145 -155 l144 -146 61 60 c33 33
60 66 60 74 0 8 -32 47 -71 88 -78 80 -77 73 -20 136 14 15 29 27 33 27 5 0
62 -55 128 -121 94 -96 117 -125 110 -138 -5 -9 -67 -74 -139 -146 l-131 -129
-123 122 -124 122 -249 0 -249 0 -118 -117 -117 -118 -135 136 c-74 74 -135
141 -135 149 0 7 52 65 115 129 l115 116 42 -42 42 -42 -72 -75 c-40 -42 -72
-80 -72 -84 0 -14 116 -132 130 -132 18 0 280 273 280 291 0 15 -330 349 -345
349 -5 0 -119 -111 -252 -247z m1034 -595 c51 -51 93 -98 93 -104 0 -6 -30
-40 -67 -76 l-68 -65 -214 3 -214 3 -49 48 c-27 26 -59 61 -70 76 l-21 29 89
89 89 89 170 0 170 0 92 -92z"/>
<path d="M953 2700 c-131 -133 -242 -253 -248 -267 -10 -25 15 -51 645 -674
376 -372 664 -649 676 -652 13 -2 146 -2 296 1 l273 5 648 648 c478 478 648
653 645 668 -3 19 -481 511 -496 511 -4 0 -88 -81 -186 -179 l-179 -180 134
-140 c74 -78 138 -141 143 -141 10 0 104 85 124 112 12 17 6 27 -59 94 l-73
75 47 47 47 47 120 -120 c66 -66 120 -124 120 -130 0 -14 -273 -285 -288 -285
-6 0 -91 80 -189 178 -98 97 -186 183 -196 191 -15 12 -35 -5 -192 -162 -96
-96 -175 -181 -175 -188 0 -7 63 -76 140 -153 l139 -141 61 60 c33 33 60 64
60 70 0 5 -31 44 -69 86 l-70 76 44 43 c44 44 44 44 67 25 53 -44 229 -227
226 -234 -7 -19 -278 -291 -290 -291 -7 0 -87 75 -179 166 l-165 165 -264 -1
-264 -1 -167 -164 c-91 -91 -170 -165 -175 -165 -5 0 -74 65 -154 145 l-145
145 128 127 127 128 47 -47 47 -47 -67 -70 c-37 -38 -67 -74 -67 -81 0 -15
100 -120 114 -120 17 0 276 263 276 280 0 21 -331 350 -353 350 -9 0 -101 -83
-203 -185 -103 -102 -192 -185 -199 -185 -14 0 -275 272 -275 286 0 5 53 62
118 127 l118 117 42 -40 c23 -23 42 -44 42 -48 0 -4 -23 -30 -51 -57 -28 -28
-60 -63 -71 -78 l-21 -29 59 -59 c32 -32 63 -59 69 -59 6 0 73 63 150 140 134
134 138 140 126 164 -17 31 -324 336 -339 336 -6 0 -118 -108 -249 -240z
m1659 -997 c76 -76 138 -142 138 -148 0 -5 -55 -65 -122 -132 l-123 -123 -213
0 -213 0 -125 124 c-68 68 -124 129 -124 136 0 6 61 71 136 145 l136 135 186
0 187 0 137 -137z"/>
<path d="M3707 1982 c-97 -98 -177 -182 -177 -187 0 -9 208 -225 253 -264 l28
-24 55 54 c86 84 86 79 4 166 l-72 75 46 47 47 46 126 -128 126 -128 -134
-135 c-74 -75 -142 -140 -152 -145 -16 -9 -47 17 -207 176 -162 161 -191 185
-206 177 -32 -18 -334 -328 -334 -343 0 -8 60 -75 134 -148 l134 -134 61 58
c34 32 61 63 61 69 0 7 -21 32 -46 56 -25 25 -55 58 -66 73 l-20 29 38 39 c21
21 42 39 47 39 12 0 247 -232 247 -244 0 -9 -278 -298 -293 -305 -5 -2 -104
92 -221 208 -117 116 -216 211 -222 211 -15 0 -354 -344 -354 -359 0 -16 299
-321 315 -321 15 0 115 103 115 119 0 8 -40 58 -89 111 l-90 97 48 47 49 48
143 -147 c79 -80 145 -153 147 -161 4 -16 -264 -294 -283 -294 -6 0 -71 61
-145 136 -74 75 -163 163 -197 196 l-61 60 -271 2 -270 3 -203 -205 -202 -204
-148 150 c-81 82 -148 153 -148 158 0 5 67 77 150 159 l150 149 45 -44 c25
-24 45 -49 45 -55 0 -6 -40 -51 -90 -100 -49 -49 -90 -93 -90 -98 0 -16 92
-116 112 -123 17 -5 48 22 170 142 82 82 154 157 160 167 8 16 -15 44 -163
193 -108 109 -181 174 -193 174 -13 0 -93 -76 -224 -210 -112 -115 -208 -210
-214 -210 -13 0 -298 290 -298 303 0 13 231 247 245 247 6 0 28 -18 50 -40
l39 -40 -67 -69 c-37 -38 -67 -73 -67 -78 0 -13 65 -91 95 -115 l27 -21 141
142 141 142 -164 165 c-91 91 -173 170 -184 176 -15 8 -44 -17 -206 -177 -162
-161 -190 -186 -206 -177 -11 6 -77 69 -148 141 l-129 129 112 119 c62 65 119
121 126 126 15 8 95 -56 95 -75 0 -5 -26 -36 -58 -67 -95 -95 -93 -82 -21
-156 34 -36 66 -65 71 -65 5 0 72 63 149 139 119 119 139 143 130 158 -19 34
-338 343 -354 343 -19 0 -502 -494 -502 -514 0 -8 92 -108 205 -223 113 -114
429 -436 704 -716 274 -279 504 -507 510 -507 6 0 117 106 246 235 l235 235
198 0 198 0 233 -237 233 -237 25 16 c29 19 1421 1423 1427 1439 4 13 -498
519 -514 519 -6 0 -90 -80 -188 -178z"/>
</g>
</svg>
